<?xml version="1.0" encoding="UTF-8"?>
<svg width="800px" height="600px" viewBox="0 0 800 600" version="1.1" xmlns="http://www.w3.org/2000/svg">
    <g stroke="none" stroke-width="1" fill="none" fill-rule="evenodd">
        <!-- Fond avec motif de grille -->
        <path d="M0,0 L800,0 L800,600 L0,600 L0,0 Z" fill="#ffffff" fill-opacity="0.1"/>
        <g transform="translate(200, 100)">
            <!-- Bouclier principal -->
            <path d="M200,0 L400,100 L400,300 C400,400 300,500 200,500 C100,500 0,400 0,300 L0,100 L200,0 Z" 
                  fill="#2196f3" 
                  fill-opacity="0.2"/>
            
            <!-- Contour du bouclier -->
            <path d="M200,20 L380,110 L380,290 C380,380 290,470 200,470 C110,470 20,380 20,290 L20,110 L200,20 Z" 
                  stroke="#ffffff" 
                  stroke-width="4" 
                  fill="none"/>
            
            <!-- Symbole de coche -->
            <path d="M140,250 L180,290 L260,210" 
                  stroke="#ffffff" 
                  stroke-width="8" 
                  stroke-linecap="round" 
                  stroke-linejoin="round"
                  fill="none"/>
        </g>
        
        <!-- Cercles décoratifs -->
        <circle cx="150" cy="150" r="20" fill="#ffffff" fill-opacity="0.2"/>
        <circle cx="650" cy="450" r="30" fill="#ffffff" fill-opacity="0.2"/>
        <circle cx="100" cy="500" r="15" fill="#ffffff" fill-opacity="0.2"/>
        <circle cx="700" cy="100" r="25" fill="#ffffff" fill-opacity="0.2"/>
        
        <!-- Lignes de connexion -->
        <path d="M100,100 L200,200" stroke="#ffffff" stroke-width="2" stroke-opacity="0.3"/>
        <path d="M600,400 L700,500" stroke="#ffffff" stroke-width="2" stroke-opacity="0.3"/>
        <path d="M150,450 L250,550" stroke="#ffffff" stroke-width="2" stroke-opacity="0.3"/>
        <path d="M650,150 L750,250" stroke="#ffffff" stroke-width="2" stroke-opacity="0.3"/>
    </g>
</svg> 