<?xml version="1.0" encoding="UTF-8"?>
<svg width="500" height="500" viewBox="0 0 500 500" version="1.1" xmlns="http://www.w3.org/2000/svg">
    <g stroke="none" stroke-width="1" fill="none" fill-rule="evenodd">
        <!-- Motif de boucliers -->
        <g transform="translate(0, 0)" fill="#ffffff" fill-opacity="0.05">
            <path d="M50,0 L100,25 L100,75 C100,100 75,125 50,125 C25,125 0,100 0,75 L0,25 L50,0 Z" />
        </g>
        <g transform="translate(150, 0)" fill="#ffffff" fill-opacity="0.05">
            <path d="M50,0 L100,25 L100,75 C100,100 75,125 50,125 C25,125 0,100 0,75 L0,25 L50,0 Z" />
        </g>
        <g transform="translate(300, 0)" fill="#ffffff" fill-opacity="0.05">
            <path d="M50,0 L100,25 L100,75 C100,100 75,125 50,125 C25,125 0,100 0,75 L0,25 L50,0 Z" />
        </g>

        <!-- Motif de cadenas -->
        <g transform="translate(75, 150)" fill="#ffffff" fill-opacity="0.05">
            <path d="M40,0 C51,0 60,9 60,20 L60,40 L70,40 C75.5,40 80,44.5 80,50 L80,90 C80,95.5 75.5,100 70,100 L10,100 C4.5,100 0,95.5 0,90 L0,50 C0,44.5 4.5,40 10,40 L20,40 L20,20 C20,9 29,0 40,0 Z M40,10 C34.5,10 30,14.5 30,20 L30,40 L50,40 L50,20 C50,14.5 45.5,10 40,10 Z" />
        </g>
        <g transform="translate(225, 150)" fill="#ffffff" fill-opacity="0.05">
            <path d="M40,0 C51,0 60,9 60,20 L60,40 L70,40 C75.5,40 80,44.5 80,50 L80,90 C80,95.5 75.5,100 70,100 L10,100 C4.5,100 0,95.5 0,90 L0,50 C0,44.5 4.5,40 10,40 L20,40 L20,20 C20,9 29,0 40,0 Z M40,10 C34.5,10 30,14.5 30,20 L30,40 L50,40 L50,20 C50,14.5 45.5,10 40,10 Z" />
        </g>

        <!-- Motif de clés -->
        <g transform="translate(0, 300)" fill="#ffffff" fill-opacity="0.05">
            <path d="M35,0 C54.33,0 70,15.67 70,35 C70,54.33 54.33,70 35,70 C15.67,70 0,54.33 0,35 C0,15.67 15.67,0 35,0 Z M35,20 C26.72,20 20,26.72 20,35 C20,43.28 26.72,50 35,50 C43.28,50 50,43.28 50,35 C50,26.72 43.28,20 35,20 Z" />
            <rect x="60" y="30" width="40" height="10" />
            <rect x="80" y="30" width="10" height="20" />
        </g>
        <g transform="translate(150, 300)" fill="#ffffff" fill-opacity="0.05">
            <path d="M35,0 C54.33,0 70,15.67 70,35 C70,54.33 54.33,70 35,70 C15.67,70 0,54.33 0,35 C0,15.67 15.67,0 35,0 Z M35,20 C26.72,20 20,26.72 20,35 C20,43.28 26.72,50 35,50 C43.28,50 50,43.28 50,35 C50,26.72 43.28,20 35,20 Z" />
            <rect x="60" y="30" width="40" height="10" />
            <rect x="80" y="30" width="10" height="20" />
        </g>

        <!-- Lignes de connexion -->
        <path d="M0,0 L500,500" stroke="#ffffff" stroke-width="1" stroke-opacity="0.05" />
        <path d="M500,0 L0,500" stroke="#ffffff" stroke-width="1" stroke-opacity="0.05" />
        <path d="M250,0 L250,500" stroke="#ffffff" stroke-width="1" stroke-opacity="0.05" />
        <path d="M0,250 L500,250" stroke="#ffffff" stroke-width="1" stroke-opacity="0.05" />
    </g>
</svg> 